<svg width="198" height="71" viewBox="0 0 198 71" fill="none" xmlns="http://www.w3.org/2000/svg">
<rect width="197.571" height="71" rx="35.5" fill="white"/>
<path d="M51.2646 32.3073H50.8559L49.2596 28.3228C48.9745 27.6144 48.4842 27.0073 47.8516 26.5795C47.219 26.1517 46.473 25.9227 45.7093 25.9219H38.0468C37.1596 25.9194 36.299 26.2248 35.6119 26.7861C34.9249 27.3474 34.4539 28.1298 34.2794 28.9997L33.6153 32.3073H33.3854C32.3693 32.3073 31.3948 32.711 30.6763 33.4295C29.9578 34.148 29.5542 35.1224 29.5542 36.1386V39.9698C29.5542 40.3085 29.6887 40.6333 29.9282 40.8728C30.1677 41.1123 30.4926 41.2469 30.8313 41.2469H32.1084C32.1084 42.263 32.512 43.2375 33.2305 43.956C33.949 44.6745 34.9235 45.0781 35.9396 45.0781C36.9557 45.0781 37.9302 44.6745 38.6487 43.956C39.3672 43.2375 39.7709 42.263 39.7709 41.2469H44.8792C44.8792 42.263 45.2828 43.2375 46.0013 43.956C46.7198 44.6745 47.6943 45.0781 48.7104 45.0781C49.7266 45.0781 50.7011 44.6745 51.4196 43.956C52.1381 43.2375 52.5417 42.263 52.5417 41.2469H53.8188C54.1575 41.2469 54.4823 41.1123 54.7218 40.8728C54.9613 40.6333 55.0959 40.3085 55.0959 39.9698V36.1386C55.0959 35.1224 54.6922 34.148 53.9737 33.4295C53.2552 32.711 52.2807 32.3073 51.2646 32.3073ZM43.6021 28.4761H45.7093C45.9629 28.4784 46.2101 28.5561 46.4193 28.6994C46.6286 28.8427 46.7904 29.045 46.8842 29.2806L48.0974 32.3073H43.6021V28.4761ZM36.7825 29.4977C36.8422 29.2049 37.0027 28.9423 37.236 28.7556C37.4694 28.569 37.7608 28.47 38.0596 28.4761H41.0479V32.3073H36.2206L36.7825 29.4977ZM35.9396 42.524C35.687 42.524 35.4401 42.4491 35.2301 42.3087C35.0201 42.1684 34.8564 41.969 34.7597 41.7356C34.6631 41.5023 34.6378 41.2455 34.6871 40.9977C34.7363 40.75 34.858 40.5225 35.0366 40.3439C35.2152 40.1653 35.4427 40.0436 35.6905 39.9943C35.9382 39.9451 36.195 39.9704 36.4283 40.067C36.6617 40.1637 36.8611 40.3274 37.0015 40.5374C37.1418 40.7474 37.2167 40.9943 37.2167 41.2469C37.2167 41.5856 37.0821 41.9104 36.8426 42.1499C36.6031 42.3894 36.2783 42.524 35.9396 42.524ZM48.7104 42.524C48.4579 42.524 48.211 42.4491 48.0009 42.3087C47.7909 42.1684 47.6272 41.969 47.5306 41.7356C47.4339 41.5023 47.4086 41.2455 47.4579 40.9977C47.5072 40.75 47.6288 40.5225 47.8074 40.3439C47.986 40.1653 48.2136 40.0436 48.4613 39.9943C48.709 39.9451 48.9658 39.9704 49.1992 40.067C49.4325 40.1637 49.632 40.3274 49.7723 40.5374C49.9126 40.7474 49.9875 40.9943 49.9875 41.2469C49.9875 41.5856 49.853 41.9104 49.6135 42.1499C49.374 42.3894 49.0492 42.524 48.7104 42.524ZM52.5417 38.6927H51.5456C51.1865 38.2977 50.7488 37.982 50.2606 37.766C49.7723 37.55 49.2443 37.4384 48.7104 37.4384C48.1766 37.4384 47.6486 37.55 47.1603 37.766C46.6721 37.982 46.2344 38.2977 45.8753 38.6927H38.7747C38.4156 38.2977 37.978 37.982 37.4897 37.766C37.0015 37.55 36.4735 37.4384 35.9396 37.4384C35.4057 37.4384 34.8777 37.55 34.3895 37.766C33.9013 37.982 33.4636 38.2977 33.1045 38.6927H32.1084V36.1386C32.1084 35.7999 32.2429 35.475 32.4824 35.2355C32.7219 34.996 33.0467 34.8615 33.3854 34.8615H51.2646C51.6033 34.8615 51.9282 34.996 52.1677 35.2355C52.4072 35.475 52.5417 35.7999 52.5417 36.1386V38.6927Z" fill="#ED017F"/>
<path d="M83.9579 40.716C85.8299 40.716 87.5579 39.906 88.7639 38.646L86.8379 36.918C86.1179 37.746 85.0919 38.304 83.9579 38.304C81.8879 38.304 80.1239 36.468 80.1239 34.308C80.1239 32.166 81.8879 30.33 83.9579 30.33C85.0919 30.33 86.1179 30.888 86.8379 31.716L88.7639 29.988C87.5579 28.71 85.8299 27.918 83.9579 27.918C80.4119 27.918 77.3879 30.834 77.3879 34.308C77.3879 37.782 80.4119 40.716 83.9579 40.716ZM94.4931 30.978C93.1971 30.978 91.9191 31.338 90.6051 32.004L91.4871 33.75C92.2251 33.372 93.0351 33.084 93.8991 33.084C95.4291 33.084 96.0411 33.948 96.0411 34.938V35.118C95.2491 34.812 94.4211 34.65 93.6651 34.65C91.5051 34.65 89.7951 35.91 89.7951 37.746C89.7951 39.528 91.3251 40.716 93.3051 40.716C94.3131 40.716 95.3751 40.32 96.0411 39.564V40.5H98.5791V34.938C98.5791 32.508 96.9231 30.978 94.4931 30.978ZM93.8991 38.898C92.9991 38.898 92.3331 38.43 92.3331 37.674C92.3331 36.918 93.0891 36.36 94.0431 36.36C94.7631 36.36 95.4471 36.486 96.0411 36.702V37.566C95.8611 38.43 94.9071 38.898 93.8991 38.898ZM103.422 32.922V31.194H100.794V40.5H103.422V36.054C103.422 34.308 104.664 33.192 106.608 33.192V30.978C105.186 30.978 104.034 31.716 103.422 32.922ZM115.798 38.106V28.134H113.134V40.5H121.954V38.106H115.798ZM128.165 40.716C130.919 40.716 133.223 38.484 133.223 35.838C133.223 33.192 130.919 30.978 128.165 30.978C125.393 30.978 123.071 33.192 123.071 35.838C123.071 38.484 125.393 40.716 128.165 40.716ZM128.165 38.502C126.761 38.502 125.591 37.278 125.591 35.838C125.591 34.398 126.761 33.192 128.165 33.192C129.551 33.192 130.721 34.398 130.721 35.838C130.721 37.278 129.551 38.502 128.165 38.502ZM139.159 30.978C137.863 30.978 136.585 31.338 135.271 32.004L136.153 33.75C136.891 33.372 137.701 33.084 138.565 33.084C140.095 33.084 140.707 33.948 140.707 34.938V35.118C139.915 34.812 139.087 34.65 138.331 34.65C136.171 34.65 134.461 35.91 134.461 37.746C134.461 39.528 135.991 40.716 137.971 40.716C138.979 40.716 140.041 40.32 140.707 39.564V40.5H143.245V34.938C143.245 32.508 141.589 30.978 139.159 30.978ZM138.565 38.898C137.665 38.898 136.999 38.43 136.999 37.674C136.999 36.918 137.755 36.36 138.709 36.36C139.429 36.36 140.113 36.486 140.707 36.702V37.566C140.527 38.43 139.573 38.898 138.565 38.898ZM150.842 30.978C149.636 30.978 148.592 31.518 148.034 32.364V31.194H145.406V40.5H148.034V34.938L148.052 34.992C148.052 33.984 148.898 33.192 149.996 33.192C151.04 33.192 151.76 33.984 151.76 35.136V40.5H154.298V34.578C154.298 32.472 152.858 30.978 150.842 30.978ZM160.009 40.716C162.295 40.716 163.789 39.546 163.789 37.71C163.789 35.676 162.007 35.136 160.405 34.722C159.145 34.38 158.767 34.236 158.767 33.732C158.767 33.408 159.217 33.174 159.865 33.174C160.657 33.174 161.629 33.48 162.475 34.002L163.537 32.13C162.511 31.446 161.197 30.978 159.865 30.978C157.669 30.978 156.211 32.238 156.229 34.002C156.247 35.838 157.723 36.36 159.631 36.828C160.585 37.08 161.269 37.26 161.269 37.836C161.269 38.25 160.765 38.538 160.063 38.538C158.821 38.538 157.777 38.088 156.949 37.494L155.815 39.312C156.931 40.212 158.515 40.716 160.009 40.716Z" fill="#343434"/>
</svg>
