<svg width="211" height="71" viewBox="0 0 211 71" fill="none" xmlns="http://www.w3.org/2000/svg">
<rect width="210.973" height="71" rx="35.5" fill="white"/>
<path d="M52.5416 30.3916L44.8791 23.6742C44.1767 23.0459 43.2673 22.6986 42.3249 22.6986C41.3825 22.6986 40.4732 23.0459 39.7708 23.6742L32.1083 30.3916C31.7026 30.7544 31.3789 31.1995 31.1587 31.6971C30.9385 32.1948 30.8268 32.7337 30.8312 33.2778V44.4396C30.8312 45.4557 31.2348 46.4302 31.9533 47.1487C32.6718 47.8672 33.6463 48.2708 34.6624 48.2708H49.9874C51.0035 48.2708 51.978 47.8672 52.6965 47.1487C53.415 46.4302 53.8187 45.4557 53.8187 44.4396V33.2651C53.8212 32.723 53.7087 32.1866 53.4885 31.6913C53.2684 31.196 52.9456 30.753 52.5416 30.3916V30.3916ZM44.8791 45.7166H39.7708V39.3312C39.7708 38.9925 39.9053 38.6677 40.1448 38.4282C40.3843 38.1887 40.7091 38.0541 41.0478 38.0541H43.602C43.9407 38.0541 44.2655 38.1887 44.505 38.4282C44.7445 38.6677 44.8791 38.9925 44.8791 39.3312V45.7166ZM51.2645 44.4396C51.2645 44.7783 51.13 45.1031 50.8905 45.3426C50.651 45.5821 50.3261 45.7166 49.9874 45.7166H47.4333V39.3312C47.4333 38.3151 47.0296 37.3406 46.3111 36.6221C45.5926 35.9036 44.6181 35.5 43.602 35.5H41.0478C40.0317 35.5 39.0572 35.9036 38.3387 36.6221C37.6202 37.3406 37.2166 38.3151 37.2166 39.3312V45.7166H34.6624C34.3237 45.7166 33.9989 45.5821 33.7594 45.3426C33.5199 45.1031 33.3853 44.7783 33.3853 44.4396V33.2651C33.3856 33.0838 33.4244 32.9046 33.4993 32.7394C33.5741 32.5743 33.6833 32.4269 33.8196 32.3073L41.482 25.6026C41.7151 25.3978 42.0147 25.2849 42.3249 25.2849C42.6351 25.2849 42.9347 25.3978 43.1678 25.6026L50.8303 32.3073C50.9665 32.4269 51.0757 32.5743 51.1506 32.7394C51.2254 32.9046 51.2643 33.0838 51.2645 33.2651V44.4396Z" fill="#ED017F"/>
<path d="M86.1539 28.134V32.994H80.5199V28.134H77.8739V40.5H80.5199V35.388H86.1539V40.5H88.7999V28.134H86.1539ZM95.7509 40.716C98.5049 40.716 100.809 38.484 100.809 35.838C100.809 33.192 98.5049 30.978 95.7509 30.978C92.9789 30.978 90.6569 33.192 90.6569 35.838C90.6569 38.484 92.9789 40.716 95.7509 40.716ZM95.7509 38.502C94.3469 38.502 93.1769 37.278 93.1769 35.838C93.1769 34.398 94.3469 33.192 95.7509 33.192C97.1369 33.192 98.3069 34.398 98.3069 35.838C98.3069 37.278 97.1369 38.502 95.7509 38.502ZM113.657 30.978C112.271 30.978 111.119 31.644 110.633 32.67C110.057 31.626 108.959 30.978 107.681 30.978C106.529 30.978 105.611 31.536 105.161 32.418V31.194H102.533V40.5H105.161V34.884C105.161 33.894 105.899 33.192 106.961 33.192C107.915 33.192 108.599 33.948 108.599 35.028V40.518H111.119V34.884C111.119 33.894 111.875 33.192 112.919 33.192C113.891 33.192 114.575 33.948 114.575 35.028V40.518H117.095V34.578C117.095 32.472 115.601 30.978 113.657 30.978ZM123.696 38.394C122.598 38.394 121.788 37.71 121.482 36.702H128.196C128.196 33.192 126.486 30.978 123.57 30.978C120.852 30.978 118.782 33.012 118.782 35.82C118.782 38.682 120.942 40.716 123.714 40.716C125.082 40.716 126.684 40.14 127.512 39.276L125.838 37.566C125.334 38.052 124.434 38.394 123.696 38.394ZM123.678 33.3C124.74 33.3 125.424 33.894 125.676 34.812H121.518C121.86 33.876 122.688 33.3 123.678 33.3ZM137.647 38.106V28.134H134.983V40.5H143.803V38.106H137.647ZM150.015 40.716C152.769 40.716 155.073 38.484 155.073 35.838C155.073 33.192 152.769 30.978 150.015 30.978C147.243 30.978 144.921 33.192 144.921 35.838C144.921 38.484 147.243 40.716 150.015 40.716ZM150.015 38.502C148.611 38.502 147.441 37.278 147.441 35.838C147.441 34.398 148.611 33.192 150.015 33.192C151.401 33.192 152.571 34.398 152.571 35.838C152.571 37.278 151.401 38.502 150.015 38.502ZM161.009 30.978C159.713 30.978 158.435 31.338 157.121 32.004L158.003 33.75C158.741 33.372 159.551 33.084 160.415 33.084C161.945 33.084 162.557 33.948 162.557 34.938V35.118C161.765 34.812 160.937 34.65 160.181 34.65C158.021 34.65 156.311 35.91 156.311 37.746C156.311 39.528 157.841 40.716 159.821 40.716C160.829 40.716 161.891 40.32 162.557 39.564V40.5H165.095V34.938C165.095 32.508 163.439 30.978 161.009 30.978ZM160.415 38.898C159.515 38.898 158.849 38.43 158.849 37.674C158.849 36.918 159.605 36.36 160.559 36.36C161.279 36.36 161.963 36.486 162.557 36.702V37.566C162.377 38.43 161.423 38.898 160.415 38.898ZM172.692 30.978C171.486 30.978 170.442 31.518 169.884 32.364V31.194H167.256V40.5H169.884V34.938L169.902 34.992C169.902 33.984 170.748 33.192 171.846 33.192C172.89 33.192 173.61 33.984 173.61 35.136V40.5H176.148V34.578C176.148 32.472 174.708 30.978 172.692 30.978Z" fill="#343434"/>
</svg>
